Title                            : Piranha
Year                             : 2010
Genre                            : Comedy | Horror | Thriller
iMDB URL                         : http://www.imdb.com/title/tt0464154/

Complete name                    : Piranha.2010.BRRIP.720P.H264-ZEKTORM.mp4
Format                           : MPEG-4
Format profile                   : Base Media
Codec ID                         : isom
File size                        : 1.95 GiB
Duration                         : 1h 28mn
Overall bit rate                 : 3165 Kbps
Subtitles                        : English (Format: srt)

Video
ID                               : 1
Format                           : AVC
Format/Info                      : Advanced Video Codec
Format profile                   : High@L4.0
Format settings, CABAC           : Yes
Format settings, ReFrames        : 5 frames
Codec ID                         : avc1
Codec ID/Info                    : Advanced Video Coding
Duration                         : 1h 28mn
Bit rate mode                    : Variable
Bit rate                         : 2720 Kbps
Width                            : 1280 pixels
Height                           : 528 pixels
Display aspect ratio             : 2.424
Frame rate mode                  : Constant
Frame rate                       : 23.976 fps
Resolution                       : 24 bits
Colorimetry                      : 4:2:0
Scan type                        : Progressive
Bits/(Pixel*Frame)               : 0.168
Stream size                      : 1.68 GiB (86%)
Title                            : Video
Writing library                  : x264

Audio
ID                               : 2
Format                           : AAC
Format/Info                      : Advanced Audio Codec
Format version                   : Version 4
Format profile                   : LC
Format settings, SBR             : No
Codec ID                         : 40
Duration                         : 1h 28mn
Bit rate mode                    : Variable
Bit rate                         : 441 Kbps
Maximum bit rate                 : 527 Kbps
Channel(s)                       : 6 channels
Channel positions                : Front: L C R, Rear: L R, LFE
Sampling rate                    : 48.0 KHz
Resolution                       : 16 bits
Stream size                      : 279 MiB (14%)
Language                         : English



Screenshots:
 
http://img573.imageshack.us/img573/4997/snapp1.png
 
http://img31.imageshack.us/img31/8869/snapp2.png
 
http://img233.imageshack.us/img233/641/snapp3.png
 
http://img152.imageshack.us/img152/1019/snapp4.png
